<?xml version="1.0" encoding="UTF-8"?>
<!DOCTYPE svg
PUBLIC "-//W3C//DTD SVG 1.1//EN"
       "http://www.w3.org/Graphics/SVG/1.1/DTD/svg11.dtd">
<svg viewBox="307 201 1113 560" width="806px" height="359px" xmlns="http://www.w3.org/2000/svg" version="1.1">
   <line x1="752" y1="286" x2="762" y2="286" style="stroke:#c00;stroke-width:1;"/>
   <line x1="1002" y1="435" x2="1012" y2="435" style="stroke:#c00;stroke-width:1;"/>
   <line x1="762" y1="286" x2="1002" y2="435" style="stroke:#c00;stroke-width:1;"/>
   <line x1="759.5" y1="286" x2="755.96446609407" y2="289.53553390593" style="stroke:#c00;stroke-width:2;"/>
   <line x1="759.5" y1="286" x2="755.96446609407" y2="282.46446609407" style="stroke:#c00;stroke-width:2;"/>
   <line x1="1007" y1="435" x2="1003.4644660941" y2="438.53553390593" style="stroke:#c00;stroke-width:2;"/>
   <line x1="1007" y1="435" x2="1003.4644660941" y2="431.46446609407" style="stroke:#c00;stroke-width:2;"/>
   <line x1="666" y1="266" x2="656" y2="266" style="stroke:#b0b;stroke-width:1;"/>
   <line x1="418" y1="423" x2="408" y2="423" style="stroke:#b0b;stroke-width:1;"/>
   <line x1="656" y1="266" x2="418" y2="423" style="stroke:#b0b;stroke-width:1;"/>
   <line x1="658.5" y1="266" x2="662.03553390593" y2="269.53553390593" style="stroke:#b0b;stroke-width:2;"/>
   <line x1="658.5" y1="266" x2="662.03553390593" y2="262.46446609407" style="stroke:#b0b;stroke-width:2;"/>
   <line x1="413" y1="423" x2="416.53553390593" y2="426.53553390593" style="stroke:#b0b;stroke-width:2;"/>
   <line x1="413" y1="423" x2="416.53553390593" y2="419.46446609407" style="stroke:#b0b;stroke-width:2;"/>
   <rect width="86" height="20" x="666" y="216" style="fill:#007;stroke:black;"/>
   <text width="86" height="20" x="671" y="230" style="fill:#fff;" font-family="Arial" font-size="16px"> booking</text>
   <rect width="86" height="20" x="666" y="236" style="fill:#aea;stroke:black;"/>
   <text width="86" height="20" x="671" y="250" style="fill:black;" font-family="Arial" font-size="16px">bookingId</text>
   <rect width="86" height="20" x="666" y="256" style="fill:none;stroke:black;"/>
   <text width="86" height="20" x="671" y="270" style="fill:black;" font-family="Arial" font-size="16px">roomId</text>
   <rect width="86" height="20" x="666" y="276" style="fill:none;stroke:black;"/>
   <text width="86" height="20" x="671" y="290" style="fill:black;" font-family="Arial" font-size="16px">userId</text>
   <rect width="86" height="20" x="666" y="296" style="fill:none;stroke:black;"/>
   <text width="86" height="20" x="671" y="310" style="fill:black;" font-family="Arial" font-size="16px">startTime</text>
   <rect width="86" height="20" x="666" y="316" style="fill:none;stroke:black;"/>
   <text width="86" height="20" x="671" y="330" style="fill:black;" font-family="Arial" font-size="16px">endTime</text>
   <rect width="86" height="20" x="322" y="393" style="fill:#007;stroke:black;"/>
   <text width="86" height="20" x="327" y="407" style="fill:#fff;" font-family="Arial" font-size="16px"> room</text>
   <rect width="86" height="20" x="322" y="413" style="fill:#aea;stroke:black;"/>
   <text width="86" height="20" x="327" y="427" style="fill:black;" font-family="Arial" font-size="16px">id</text>
   <rect width="86" height="20" x="322" y="433" style="fill:none;stroke:black;"/>
   <text width="86" height="20" x="327" y="447" style="fill:black;" font-family="Arial" font-size="16px">name</text>
   <rect width="86" height="20" x="322" y="453" style="fill:none;stroke:black;"/>
   <text width="86" height="20" x="327" y="467" style="fill:black;" font-family="Arial" font-size="16px">created_at</text>
   <rect width="86" height="20" x="322" y="473" style="fill:none;stroke:black;"/>
   <text width="86" height="20" x="327" y="487" style="fill:black;" font-family="Arial" font-size="16px">updated_at</text>
   <rect width="86" height="20" x="1012" y="405" style="fill:#007;stroke:black;"/>
   <text width="86" height="20" x="1017" y="419" style="fill:#fff;" font-family="Arial" font-size="16px"> user</text>
   <rect width="86" height="20" x="1012" y="425" style="fill:#aea;stroke:black;"/>
   <text width="86" height="20" x="1017" y="439" style="fill:black;" font-family="Arial" font-size="16px">id</text>
   <rect width="86" height="20" x="1012" y="445" style="fill:none;stroke:black;"/>
   <text width="86" height="20" x="1017" y="459" style="fill:black;" font-family="Arial" font-size="16px">username</text>
   <rect width="86" height="20" x="1012" y="465" style="fill:none;stroke:black;"/>
   <text width="86" height="20" x="1017" y="479" style="fill:black;" font-family="Arial" font-size="16px">password</text>
   <rect width="86" height="20" x="1012" y="485" style="fill:none;stroke:black;"/>
   <text width="86" height="20" x="1017" y="499" style="fill:black;" font-family="Arial" font-size="16px">role</text>
   <rect width="86" height="20" x="1012" y="505" style="fill:none;stroke:black;"/>
   <text width="86" height="20" x="1017" y="519" style="fill:black;" font-family="Arial" font-size="16px">created_at</text>
   <rect width="86" height="20" x="1012" y="525" style="fill:none;stroke:black;"/>
   <text width="86" height="20" x="1017" y="539" style="fill:black;" font-family="Arial" font-size="16px">updated_at</text>
</svg>
